<?xml version="1.0" encoding="iso-8859-1"?>
<!-- Generator: Adobe Illustrator 19.0.0, SVG Export Plug-In . SVG Version: 6.00 Build 0)  -->
<svg version="1.1" id="Capa_1" xmlns="http://www.w3.org/2000/svg" xmlns:xlink="http://www.w3.org/1999/xlink" x="0px" y="0px"
	 viewBox="0 0 512 512" style="enable-background:new 0 0 512 512;" xml:space="preserve">
<path style="fill:#FDAB5D;" d="M111.188,80.042L111.188,80.042c-26.978,21.194-60.291,32.715-94.598,32.715H0v286.485h16.59
	c34.307,0,67.621,11.521,94.598,32.715l0,0c26.978,21.194,60.291,30.057,94.598,30.057h22.305c6.176,0,11.183-5.007,11.183-11.183
	V61.168c0-6.176-5.007-11.183-11.183-11.183h-22.305C171.48,49.985,138.166,58.848,111.188,80.042z"/>
<path style="fill:#ED974F;" d="M228.092,49.985h-22.305c-34.307,0-67.621,8.863-94.598,30.057l0,0
	c-26.978,21.194-60.291,32.715-94.598,32.715H0v24.891c100.086-6.914,126.197-50.517,157.785-50.517H170.7
	c11.363,0,20.574,9.211,20.574,20.574v353.759c4.808,0.366,9.65,0.551,14.513,0.551h22.305c6.176,0,11.183-5.007,11.183-11.183
	V61.168C239.275,54.992,234.268,49.985,228.092,49.985z"/>
<path style="fill:#FDAB5D;" d="M400.811,80.042L400.811,80.042c26.978,21.194,60.291,32.715,94.598,32.715H512v286.485h-16.59
	c-34.307,0-67.621,11.521-94.598,32.715l0,0c-26.978,21.194-60.291,30.057-94.598,30.057h-22.305
	c-6.176,0-11.183-5.007-11.183-11.183V61.168c0-6.176,5.007-11.183,11.183-11.183h22.305
	C340.52,49.985,373.834,58.848,400.811,80.042z"/>
<g>
	<path style="fill:#E58945;" d="M22.364,494.078H13.02c-7.078,0-12.816-5.738-12.816-12.816V30.738
		c0-7.078,5.738-12.816,12.816-12.816h9.345c7.078,0,12.816,5.738,12.816,12.816v450.524
		C35.18,488.34,29.442,494.078,22.364,494.078z"/>
	<path style="fill:#E58945;" d="M498.98,494.078h-9.345c-7.078,0-12.816-5.738-12.816-12.816V30.738
		c0-7.078,5.738-12.816,12.816-12.816h9.345c7.078,0,12.816,5.738,12.816,12.816v450.524
		C511.796,488.34,506.058,494.078,498.98,494.078z"/>
</g>
<path style="fill:#FDAB5D;" d="M476.82,111.62c-27.626-3.379-53.938-14.239-76.008-31.578l0,0
	c-26.978-21.194-60.291-30.057-94.598-30.057h-22.305c-6.176,0-11.183,5.007-11.183,11.183v389.663
	c0,6.176,5.007,11.183,11.183,11.183h22.305c34.307,0,67.621-8.863,94.598-30.057l0,0c22.07-17.339,48.382-28.199,76.008-31.578
	V111.62z"/>
<path style="fill:#ED974F;" d="M400.812,80.042L400.812,80.042c-26.978-21.194-60.291-30.057-94.598-30.057h-22.305
	c-6.176,0-11.183,5.007-11.183,11.183V72.25c29.012,2.252,56.732,11.352,79.814,29.486l0,0
	c18.521,14.551,39.433,24.974,62.507,32.485c8.07,2.627,13.501,10.191,13.501,18.677v261.735
	c15.169-7.362,31.474-12.198,48.273-14.253V111.62C449.194,108.241,422.882,97.381,400.812,80.042z"/>
<g>
	<path style="fill:#FFDC6C;" d="M42.783,193.674H29.172c-4.207,0-7.617-3.41-7.617-7.617v-33.184c0-4.207,3.41-7.617,7.617-7.617
		h13.611c4.207,0,7.617,3.41,7.617,7.617v33.184C50.4,190.264,46.99,193.674,42.783,193.674z"/>
	<path style="fill:#FFDC6C;" d="M42.783,366.744H29.172c-4.207,0-7.617-3.41-7.617-7.617v-33.184c0-4.207,3.41-7.617,7.617-7.617
		h13.611c4.207,0,7.617,3.41,7.617,7.617v33.184C50.4,363.334,46.99,366.744,42.783,366.744z"/>
	<path style="fill:#FFDC6C;" d="M482.828,193.674h-13.611c-4.207,0-7.617-3.41-7.617-7.617v-33.184c0-4.207,3.41-7.617,7.617-7.617
		h13.611c4.207,0,7.617,3.41,7.617,7.617v33.184C490.445,190.264,487.035,193.674,482.828,193.674z"/>
	<path style="fill:#FFDC6C;" d="M482.828,366.744h-13.611c-4.207,0-7.617-3.41-7.617-7.617v-33.184c0-4.207,3.41-7.617,7.617-7.617
		h13.611c4.207,0,7.617,3.41,7.617,7.617v33.184C490.445,363.334,487.035,366.744,482.828,366.744z"/>
</g>
<g>
	<path style="fill:#A36A58;" d="M200.238,201.239H88.292c-4.267,0-7.726,3.459-7.726,7.726s3.459,7.726,7.726,7.726h111.946
		c4.267,0,7.726-3.459,7.726-7.726S204.506,201.239,200.238,201.239z"/>
	<path style="fill:#A36A58;" d="M200.238,249.658H88.292c-4.267,0-7.726,3.459-7.726,7.726s3.459,7.726,7.726,7.726h111.946
		c4.267,0,7.726-3.459,7.726-7.726C207.965,253.117,204.506,249.658,200.238,249.658z"/>
	<path style="fill:#A36A58;" d="M200.238,298.076H88.292c-4.267,0-7.726,3.459-7.726,7.726s3.459,7.726,7.726,7.726h111.946
		c4.267,0,7.726-3.459,7.726-7.726C207.965,301.535,204.506,298.076,200.238,298.076z"/>
	<path style="fill:#A36A58;" d="M311.762,216.692h111.946c4.267,0,7.726-3.459,7.726-7.726s-3.459-7.726-7.726-7.726H311.762
		c-4.267,0-7.726,3.459-7.726,7.726S307.494,216.692,311.762,216.692z"/>
	<path style="fill:#A36A58;" d="M423.708,249.658H311.762c-4.267,0-7.726,3.459-7.726,7.726s3.459,7.726,7.726,7.726h111.946
		c4.267,0,7.726-3.459,7.726-7.726C431.434,253.117,427.975,249.658,423.708,249.658z"/>
	<path style="fill:#A36A58;" d="M423.708,298.076H311.762c-4.267,0-7.726,3.459-7.726,7.726s3.459,7.726,7.726,7.726h111.946
		c4.267,0,7.726-3.459,7.726-7.726C431.434,301.535,427.975,298.076,423.708,298.076z"/>
</g>
<g>
</g>
<g>
</g>
<g>
</g>
<g>
</g>
<g>
</g>
<g>
</g>
<g>
</g>
<g>
</g>
<g>
</g>
<g>
</g>
<g>
</g>
<g>
</g>
<g>
</g>
<g>
</g>
<g>
</g>
</svg>
